<?xml version="1.0" encoding="UTF-8"?>
<svg width="320px" height="53px" viewBox="0 0 320 53" version="1.1" xmlns="http://www.w3.org/2000/svg" xmlns:xlink="http://www.w3.org/1999/xlink">
    <!-- Generator: Sketch 52.6 (67491) - http://www.bohemiancoding.com/sketch -->
    <title>BW-Logo-S (Dark)</title>
    <desc>Created with Sketch.</desc>
    <g id="Symbols" stroke="none" stroke-width="1" fill="none" fill-rule="evenodd">
        <g id="C-001_TopNavigation" transform="translate(-50.000000, -43.000000)">
            <g id="Top_Nav">
                <g id="BW-Logo-S-(Dark)" transform="translate(50.000000, 43.000000)">
                    <g id="Group">
                        <path d="M64.7544987,44.1666667 L50.9734513,44.1666667 L50.9734513,12.9345238 L64.5172662,12.9345238 C70.3618106,12.9345238 74.0281299,15.9430254 74.0281299,20.7263266 C74.0281299,24.1460623 71.4832729,27.0030566 68.1835855,27.5008663 L68.1835855,27.6740174 C72.4106361,27.9986759 75.5162242,31.0937531 75.5162242,35.2277374 C75.5162242,40.7252871 71.3970066,44.1666667 64.7544987,44.1666667 Z M57.5817794,17.6666667 L57.5817794,25.8690476 L62.2299211,25.8690476 C65.6790309,25.8690476 67.6499508,24.3160635 67.6499508,21.6475556 C67.6499508,19.1102857 65.9146844,17.6666667 62.8940354,17.6666667 L57.5817794,17.6666667 Z M57.5811209,39.4345238 L63.1590239,39.4345238 C66.8919281,39.4345238 68.9085546,37.8187436 68.9085546,34.8055319 C68.9085546,31.8578248 66.8275677,30.2857143 63.0088496,30.2857143 L57.5811209,30.2857143 L57.5811209,39.4345238 Z" id="Combined-Shape" fill="#FFFFFF" fill-rule="nonzero"></path>
                        <path d="M78.9773845,44.1666667 L78.9773845,20.8218282 L85.2718837,20.8218282 L85.2718837,25.1215363 L85.3796865,25.1215363 C86.2009958,22.1666629 88.105742,20.5076558 90.8290308,20.5076558 C91.5638865,20.5076558 92.1906752,20.6162908 92.6229432,20.7466529 L92.6229432,26.3817029 C92.1042216,26.1644328 91.2396854,26.0123437 90.3319225,26.0123437 C87.2195925,26.0123437 85.3796865,27.9248644 85.3796865,31.205643 L85.3796865,44.1666667 L78.9773845,44.1666667 Z" id="Path" fill="#FFFFFF" fill-rule="nonzero"></path>
                        <g id="Group-3" transform="translate(95.968535, 12.303571)" fill="#FFFFFF" fill-rule="nonzero">
                            <polygon id="Path" points="0 31.8634948 0 8.51825673 6.29301868 8.51825673 6.29301868 31.8634948"></polygon>
                            <path d="M3.14650934,6.30952381 C1.3869482,6.30952381 0,4.87936508 0,3.1547619 C0,1.40912698 1.3869482,0 3.14650934,0 C4.90607049,0 6.29301868,1.40912698 6.29301868,3.1547619 C6.29301868,4.87936508 4.90607049,6.30952381 3.14650934,6.30952381 Z" id="Path"></path>
                        </g>
                        <path d="M115.027391,44.1666667 C109.32109,44.1666667 105.722714,39.6315884 105.722714,32.294174 C105.722714,25.0209353 109.342383,20.5072489 115.069976,20.5072489 C118.370262,20.5072489 120.925322,22.2613829 122.032515,24.8070165 L122.160268,24.8070165 L122.160268,12.9345238 L128.377581,12.9345238 L128.377581,44.1666667 L122.245437,44.1666667 L122.245437,39.8668991 L122.138976,39.8668991 C121.031783,42.3911407 118.391554,44.1666667 115.027391,44.1666667 Z M117.039549,25.5535714 C113.923511,25.5535714 112.015733,28.1729648 112.015733,32.3469575 C112.015733,36.542246 113.923511,39.1190476 117.039549,39.1190476 C120.113192,39.1190476 122.084562,36.5209501 122.084562,32.3469575 C122.084562,28.1942607 120.113192,25.5535714 117.039549,25.5535714 Z" id="Combined-Shape" fill="#FFFFFF" fill-rule="nonzero"></path>
                        <path d="M143.258737,53 C137.170951,53 133.047663,50.0182957 132.551142,45.8613211 L138.725279,45.8613211 C139.221801,47.4718767 141.035184,48.5818542 143.43144,48.5818542 C146.691212,48.5818542 148.504595,46.7536559 148.504595,44.0548871 L148.504595,39.9632053 L148.375067,39.9632053 C147.295673,42.4443315 144.575598,44.1626457 141.229475,44.1626457 C135.573447,44.1626457 131.838741,39.7455626 131.838741,32.4545339 C131.838741,25.0546838 135.465507,20.5059524 141.337414,20.5059524 C144.66195,20.5059524 147.274085,22.2688578 148.483007,24.9458624 L148.590946,24.9458624 L148.590946,20.8253719 L154.80826,20.8253719 L154.80826,43.880773 C154.80826,49.4524248 150.18845,53 143.258737,53 Z M143.279688,39.1190476 C146.477976,39.1190476 148.515241,36.6093263 148.515241,32.4120339 C148.515241,28.2363769 146.477976,25.5535714 143.279688,25.5535714 C140.125213,25.5535714 138.13176,28.1931059 138.13176,32.4120339 C138.13176,36.6525974 140.103307,39.1190476 143.279688,39.1190476 Z" id="Combined-Shape" fill="#FFFFFF" fill-rule="nonzero"></path>
                        <polygon id="Path" fill="#FFFFFF" fill-rule="nonzero" points="216.165192 20.5090799 209.887308 44.1697942 203.012584 44.1697942 198.72417 27.4395503 198.591539 27.4395503 194.325231 44.1697942 187.538927 44.1697942 181.238938 20.5090799 187.737874 20.5090799 191.31892 38.0559716 191.451551 38.0559716 195.651544 20.5090799 201.841007 20.5090799 206.063104 38.0559716 206.195736 38.0559716 209.798887 20.5090799"></polygon>
                        <path d="M250.436731,44.1666667 C246.153084,44.1666667 242.910521,41.2850835 242.910521,37.1928669 C242.910521,33.0582439 246.060261,30.6622828 251.666798,30.3230317 L257.33633,29.9837806 L257.33633,28.4783537 C257.33633,26.3580342 255.866451,25.1282489 253.556642,25.1282489 C251.267831,25.1282489 249.818951,26.2732214 249.524975,27.9482738 L243.918438,27.9482738 C244.149419,23.5380093 247.866112,20.5059524 253.829619,20.5059524 C259.604142,20.5059524 263.362832,23.5168061 263.362832,28.0966962 L263.362832,44.1666667 L257.33633,44.1666667 L257.33633,40.246127 L257.21034,40.246127 C255.950444,42.6632912 253.250498,44.1666667 250.436731,44.1666667 Z M252.243128,39.549276 C254.964134,39.549276 257.213786,37.7659459 257.213786,35.273581 L257.213786,33.5976805 L252.371679,33.8984832 C250.036327,34.0703704 248.707962,35.1231797 248.707962,36.7561084 C248.707962,38.4749808 250.122028,39.549276 252.243128,39.549276 Z" id="Combined-Shape" fill="#FFFFFF" fill-rule="nonzero"></path>
                        <polygon id="Path" fill="#FFFFFF" fill-rule="nonzero" points="288.849558 20.5059524 280.725735 44.1666667 273.440786 44.1666667 265.250737 20.5059524 272.160401 20.5059524 277.083261 38.4722037 277.215715 38.4722037 282.116498 20.5059524"></polygon>
                        <path d="M306.357153,36.7383029 L311.94604,36.7383029 C311.27871,41.1826231 307.274731,44.1666667 301.748406,44.1666667 C294.866567,44.1666667 290.737463,39.701183 290.737463,32.4421267 C290.737463,25.2042338 294.908275,20.5059524 301.519011,20.5059524 C308.025477,20.5059524 312.133727,24.971436 312.133727,31.8707141 L312.133727,33.7542593 L296.722578,33.7542593 L296.722578,34.135201 C296.722578,37.3732058 298.745421,39.5953659 301.852676,39.5953659 C304.08406,39.5953659 305.794093,38.4737041 306.357153,36.7383029 Z M301.48746,25.2380952 C298.831945,25.2380952 296.923293,27.2251855 296.715831,29.9702381 L306.155359,29.9702381 C306.030882,27.1637291 304.184468,25.2380952 301.48746,25.2380952 Z" id="Combined-Shape" fill="#FFFFFF" fill-rule="nonzero"></path>
                        <path d="M233.672787,36.7383029 L239.261674,36.7383029 C238.594344,41.1826231 234.590365,44.1666667 229.06404,44.1666667 C222.182201,44.1666667 218.053097,39.701183 218.053097,32.4421267 C218.053097,25.2042338 222.223909,20.5059524 228.834645,20.5059524 C235.341111,20.5059524 239.449361,24.971436 239.449361,31.8707141 L239.449361,33.7542593 L224.038212,33.7542593 L224.038212,34.135201 C224.038212,37.3732058 226.061056,39.5953659 229.16831,39.5953659 C231.399694,39.5953659 233.109727,38.4737041 233.672787,36.7383029 Z M228.803095,25.2380952 C226.147579,25.2380952 224.238927,27.2251855 224.031465,29.9702381 L233.470993,29.9702381 C233.346516,27.1637291 231.500103,25.2380952 228.803095,25.2380952 Z" id="Combined-Shape-Copy" fill="#FFFFFF" fill-rule="nonzero"></path>
                        <path d="M173.889109,36.7383029 L179.477997,36.7383029 C178.810667,41.1826231 174.806688,44.1666667 169.280362,44.1666667 C162.398523,44.1666667 158.26942,39.701183 158.26942,32.4421267 C158.26942,25.2042338 162.440231,20.5059524 169.050968,20.5059524 C175.557434,20.5059524 179.665683,24.971436 179.665683,31.8707141 L179.665683,33.7542593 L164.254535,33.7542593 L164.254535,34.135201 C164.254535,37.3732058 166.277378,39.5953659 169.384633,39.5953659 C171.616017,39.5953659 173.32605,38.4737041 173.889109,36.7383029 Z M169.019417,25.2380952 C166.363902,25.2380952 164.45525,27.2251855 164.247788,29.9702381 L173.687316,29.9702381 C173.562838,27.1637291 171.716425,25.2380952 169.019417,25.2380952 Z" id="Combined-Shape-Copy-2" fill="#FFFFFF" fill-rule="nonzero"></path>
                        <path d="M312.448378,20.5059524 L315.185444,20.5059524 L315.185444,21.1270022 L314.195821,21.1270022 L314.195821,23.6925806 L313.433543,23.6925806 L313.433543,21.1270022 L312.448378,21.1270022 L312.448378,20.5059524 Z M316.329603,20.5059524 L317.350431,20.5059524 L317.765003,21.8337141 C317.794722,21.9336537 317.82444,22.0478686 317.854158,22.1763623 C317.883877,22.304856 317.910623,22.4290648 317.934398,22.5489922 C317.964117,22.6860522 317.990863,22.8259655 318.014638,22.9687363 L318.028011,22.9687363 C318.051786,22.8259655 318.077046,22.6860522 318.103793,22.5489922 C318.127568,22.4290648 318.153571,22.304856 318.181804,22.1763623 C318.210037,22.0478686 318.240498,21.9336537 318.273188,21.8337141 L318.678845,20.5059524 L319.713046,20.5059524 L319.713046,23.6925806 L319.013177,23.6925806 L319.013177,22.2663075 C319.013177,22.1663679 319.016149,22.0507253 319.022092,21.9193762 C319.028036,21.788027 319.03398,21.6623906 319.039923,21.5424632 C319.048839,21.4054032 319.057754,21.2640622 319.06667,21.118436 L319.057754,21.118436 C319.031008,21.2497852 319.002775,21.3797046 318.973057,21.5081983 C318.949282,21.6167041 318.921793,21.7316329 318.890588,21.8529881 C318.859384,21.9743433 318.828923,22.0821336 318.799204,22.1763623 L318.326681,23.6925806 L317.702594,23.6925806 L317.225614,22.1763623 C317.195895,22.0821336 317.165434,21.9743433 317.13423,21.8529881 C317.103025,21.7316329 317.075536,21.6167041 317.051761,21.5081983 C317.022042,21.3797046 316.99381,21.2497852 316.967063,21.118436 L316.958148,21.118436 C316.967064,21.2640622 316.975979,21.4054032 316.984895,21.5424632 C316.990838,21.6623906 316.996782,21.788027 317.002726,21.9193762 C317.008669,22.0507253 317.011641,22.1663679 317.011641,22.2663075 L317.011641,23.6925806 L316.329603,23.6925806 L316.329603,20.5059524 Z" id="TM" fill="#FFFFFF" fill-rule="nonzero"></path>
                        <g id="Monogram-Copy" fill="#FD4343">
                            <polygon id="Path-9" points="28.4718775 9.41469125e-13 44.0511308 3.13823042e-13 15.58675 44.1666667 0.0250731771 44.1666667"></polygon>
                            <rect id="Rectangle" x="29.5275363" y="29.4444444" width="14.5235945" height="14.7222222"></rect>
                        </g>
                    </g>
                </g>
            </g>
        </g>
    </g>
</svg>