<?xml version="1.0" encoding="utf-8"?>
<!-- Generator: Adobe Illustrator 22.1.0, SVG Export Plug-In . SVG Version: 6.00 Build 0)  -->
<svg version="1.1" id="Layer_1" xmlns="http://www.w3.org/2000/svg" xmlns:xlink="http://www.w3.org/1999/xlink" x="0px" y="0px"
	 viewBox="0 0 1919 138" style="enable-background:new 0 0 1919 138;" xml:space="preserve">
<style type="text/css">
	.st0{fill:none;}
	.st1{fill:#FFFFFF;}
	.st2{fill:#FD4343;}
	.st3{enable-background:new    ;}
</style>
<title>C-001_TopNavigation</title>
<desc>Created with Sketch.</desc>
<g id="UX">
	<g id="BW_T-01_Homepage" transform="translate(-50.000000, -43.000000)">
		<g id="C-001_TopNavigation">
			<g id="Top_Nav">
				<rect id="Rectangle" x="50" y="43" class="st0" width="1919" height="138"/>
				<g id="BW-Logo-S-_x28_Dark_x29_" transform="translate(50.000000, 43.000000)">
					<g id="Group">
						<path id="Combined-Shape" class="st1" d="M114.8,87.2H101V55.9h13.5c5.8,0,9.5,3,9.5,7.8c0,3.4-2.5,6.3-5.8,6.8v0.2
							c4.2,0.3,7.3,3.4,7.3,7.6C125.5,83.7,121.4,87.2,114.8,87.2z M107.6,60.7v8.2h4.6c3.4,0,5.4-1.6,5.4-4.2c0-2.5-1.7-4-4.8-4
							H107.6z M107.6,82.4h5.6c3.7,0,5.7-1.6,5.7-4.6c0-2.9-2.1-4.5-5.9-4.5h-5.4V82.4z"/>
						<path id="Path" class="st1" d="M129,87.2V63.8h6.3v4.3h0.1c0.8-3,2.7-4.6,5.4-4.6c0.7,0,1.4,0.1,1.8,0.2v5.6
							c-0.5-0.2-1.4-0.4-2.3-0.4c-3.1,0-5,1.9-5,5.2v13H129z"/>
						<g id="Group-3" transform="translate(95.968535, 12.303571)">
							<polygon id="Path_1_" class="st1" points="50,74.9 50,51.5 56.3,51.5 56.3,74.9 							"/>
							<path id="Path_2_" class="st1" d="M53.1,49.3c-1.8,0-3.1-1.4-3.1-3.2c0-1.7,1.4-3.2,3.1-3.2c1.8,0,3.1,1.4,3.1,3.2
								C56.3,47.9,54.9,49.3,53.1,49.3z"/>
						</g>
						<path id="Combined-Shape_1_" class="st1" d="M165,87.2c-5.7,0-9.3-4.5-9.3-11.9c0-7.3,3.6-11.8,9.3-11.8c3.3,0,5.9,1.8,7,4.3
							h0.1V55.9h6.2v31.2h-6.1v-4.3h-0.1C171,85.4,168.4,87.2,165,87.2z M167,68.6c-3.1,0-5,2.6-5,6.8c0,4.2,1.9,6.8,5,6.8
							c3.1,0,5-2.6,5-6.8C172.1,71.2,170.1,68.6,167,68.6z"/>
						<path id="Combined-Shape_2_" class="st1" d="M193.3,96c-6.1,0-10.2-3-10.7-7.1h6.2c0.5,1.6,2.3,2.7,4.7,2.7
							c3.3,0,5.1-1.8,5.1-4.5V83h-0.1c-1.1,2.5-3.8,4.2-7.1,4.2c-5.7,0-9.4-4.4-9.4-11.7c0-7.4,3.6-11.9,9.5-11.9
							c3.3,0,5.9,1.8,7.1,4.4h0.1v-4.1h6.2v23.1C204.8,92.5,200.2,96,193.3,96z M193.3,82.1c3.2,0,5.2-2.5,5.2-6.7
							c0-4.2-2-6.9-5.2-6.9c-3.2,0-5.1,2.6-5.1,6.9C188.1,79.7,190.1,82.1,193.3,82.1z"/>
						<polygon id="Path_3_" class="st1" points="266.2,63.5 259.9,87.2 253,87.2 248.7,70.4 248.6,70.4 244.3,87.2 237.5,87.2 
							231.2,63.5 237.7,63.5 241.3,81.1 241.5,81.1 245.7,63.5 251.8,63.5 256.1,81.1 256.2,81.1 259.8,63.5 						"/>
						<path id="Combined-Shape_3_" class="st1" d="M300.4,87.2c-4.3,0-7.5-2.9-7.5-7c0-4.1,3.1-6.5,8.8-6.9l5.7-0.3v-1.5
							c0-2.1-1.5-3.4-3.8-3.4c-2.3,0-3.7,1.1-4,2.8h-5.6c0.2-4.4,3.9-7.4,9.9-7.4c5.8,0,9.5,3,9.5,7.6v16.1h-6v-3.9h-0.1
							C306,85.7,303.3,87.2,300.4,87.2z M302.2,82.5c2.7,0,5-1.8,5-4.3v-1.7l-4.8,0.3c-2.3,0.2-3.7,1.2-3.7,2.9
							C298.7,81.5,300.1,82.5,302.2,82.5z"/>
						<polygon id="Path_4_" class="st1" points="338.8,63.5 330.7,87.2 323.4,87.2 315.3,63.5 322.2,63.5 327.1,81.5 327.2,81.5 
							332.1,63.5 						"/>
						<path id="Combined-Shape_4_" class="st1" d="M356.4,79.7h5.6c-0.7,4.4-4.7,7.4-10.2,7.4c-6.9,0-11-4.5-11-11.7
							c0-7.2,4.2-11.9,10.8-11.9c6.5,0,10.6,4.5,10.6,11.4v1.9h-15.4v0.4c0,3.2,2,5.5,5.1,5.5C354.1,82.6,355.8,81.5,356.4,79.7z
							 M351.5,68.2c-2.7,0-4.6,2-4.8,4.7h9.4C356,70.2,354.2,68.2,351.5,68.2z"/>
						<path id="Combined-Shape-Copy" class="st1" d="M283.7,79.7h5.6c-0.7,4.4-4.7,7.4-10.2,7.4c-6.9,0-11-4.5-11-11.7
							c0-7.2,4.2-11.9,10.8-11.9c6.5,0,10.6,4.5,10.6,11.4v1.9H274v0.4c0,3.2,2,5.5,5.1,5.5C281.4,82.6,283.1,81.5,283.7,79.7z
							 M278.8,68.2c-2.7,0-4.6,2-4.8,4.7h9.4C283.3,70.2,281.5,68.2,278.8,68.2z"/>
						<path id="Combined-Shape-Copy-2" class="st1" d="M223.9,79.7h5.6c-0.7,4.4-4.7,7.4-10.2,7.4c-6.9,0-11-4.5-11-11.7
							c0-7.2,4.2-11.9,10.8-11.9c6.5,0,10.6,4.5,10.6,11.4v1.9h-15.4v0.4c0,3.2,2,5.5,5.1,5.5C221.6,82.6,223.3,81.5,223.9,79.7z
							 M219,68.2c-2.7,0-4.6,2-4.8,4.7h9.4C223.6,70.2,221.7,68.2,219,68.2z"/>
						<path id="TM" class="st1" d="M362.4,63.5h2.7v0.6h-1v2.6h-0.8v-2.6h-1V63.5z M366.3,63.5h1l0.4,1.3c0,0.1,0.1,0.2,0.1,0.3
							s0.1,0.3,0.1,0.4c0,0.1,0.1,0.3,0.1,0.4h0c0-0.1,0-0.3,0.1-0.4c0-0.1,0-0.2,0.1-0.4s0.1-0.2,0.1-0.3l0.4-1.3h1v3.2H369v-1.4
							c0-0.1,0-0.2,0-0.3c0-0.1,0-0.3,0-0.4c0-0.1,0-0.3,0-0.4h0c0,0.1-0.1,0.3-0.1,0.4c0,0.1-0.1,0.2-0.1,0.3
							c0,0.1-0.1,0.2-0.1,0.3l-0.5,1.5h-0.6l-0.5-1.5c0-0.1-0.1-0.2-0.1-0.3c0-0.1-0.1-0.2-0.1-0.3c0-0.1-0.1-0.3-0.1-0.4h0
							c0,0.1,0,0.3,0,0.4c0,0.1,0,0.2,0,0.4c0,0.1,0,0.2,0,0.3v1.4h-0.7V63.5z"/>
						<g id="Monogram-Copy">
							<polygon id="Path-9" class="st2" points="78.5,43 94.1,43 65.6,87.2 50,87.2 							"/>
							<rect id="Rectangle_1_" x="79.5" y="72.4" class="st2" width="14.5" height="14.7"/>
						</g>
					</g>
				</g>
			</g>
		</g>
	</g>
</g>
<g class="st3">
	<path class="st1" d="M1298.9,75h-1.7l-3.8-14.1h1.8l2.8,11.5h0.1l3.2-11.5h1.8l3.2,11.5h0.1l2.8-11.5h1.8l-3.8,14.1h-1.7l-3.3-11.2
		h-0.1L1298.9,75z"/>
	<path class="st1" d="M1312.7,60.9h1.7v5.6h0c0.6-1.1,1.7-1.8,3.2-1.8c2.2,0,3.6,1.5,3.6,3.8V75h-1.7v-6.3c0-1.6-0.8-2.6-2.4-2.6
		c-1.7,0-2.7,1.2-2.7,2.9V75h-1.7V60.9z"/>
	<path class="st1" d="M1323.5,78.8v-1.4c0.2,0,0.4,0,0.7,0c0.9,0,1.5-0.5,1.9-1.6l0.2-0.7l-3.8-10.2h1.8l2.8,8.5h0l2.8-8.5h1.8
		l-4,10.9c-0.9,2.4-1.7,3.1-3.5,3.1C1324,78.8,1323.7,78.8,1323.5,78.8z"/>
	<path class="st1" d="M1339.2,70c0,2.1,1.4,3.7,3.8,3.7s3.8-1.5,3.8-3.7v-9h1.8v9.2c0,3-2.1,5.2-5.6,5.2s-5.6-2.2-5.6-5.2v-9.2h1.8
		V70z"/>
	<path class="st1" d="M1354.7,64.7c2.2,0,3.7,1.3,3.8,3.1h-1.6c-0.1-1.1-0.9-1.7-2.2-1.7c-1.2,0-2.1,0.6-2.1,1.5
		c0,0.7,0.5,1.2,1.7,1.5l1.6,0.4c2.1,0.5,2.8,1.3,2.8,2.8c0,1.8-1.7,3-3.9,3c-2.4,0-3.9-1.2-4.1-3.1h1.7c0.2,1.2,1,1.7,2.4,1.7
		s2.2-0.6,2.2-1.5c0-0.7-0.4-1.2-1.6-1.4l-1.6-0.4c-1.9-0.5-2.8-1.3-2.8-2.8C1350.9,65.9,1352.5,64.7,1354.7,64.7z"/>
	<path class="st1" d="M1406.9,71.3c0.2,1.5,1.6,2.4,3.6,2.4c1.9,0,3.3-1,3.3-2.4c0-1.2-0.8-2-2.7-2.4l-1.6-0.3c-2.8-0.6-4-1.9-4-3.9
		c0-2.3,2.1-4,5-4c2.8,0,4.8,1.7,4.9,4.1h-1.8c-0.2-1.5-1.4-2.5-3.2-2.5c-1.8,0-3.1,0.9-3.1,2.3c0,1.1,0.8,1.9,2.7,2.3l1.6,0.3
		c2.9,0.6,4.1,1.8,4.1,3.8c0,2.6-2.1,4.2-5.2,4.2c-3.1,0-5.1-1.6-5.3-4H1406.9z"/>
	<path class="st1" d="M1416.9,70c0-3.2,1.9-5.3,4.7-5.3c2.8,0,4.7,2,4.7,5.3c0,3.2-1.9,5.3-4.7,5.3
		C1418.8,75.2,1416.9,73.2,1416.9,70z M1424.6,70c0-2.4-1.2-3.8-3-3.8s-3,1.4-3,3.8c0,2.4,1.2,3.8,3,3.8S1424.6,72.3,1424.6,70z"/>
	<path class="st1" d="M1428.1,60.9h1.7V75h-1.7V60.9z"/>
	<path class="st1" d="M1440.4,75h-1.6v-1.7h0c-0.6,1.2-1.7,1.8-3.2,1.8c-2.2,0-3.5-1.4-3.5-3.7v-6.6h1.7v6.3c0,1.7,0.8,2.5,2.3,2.5
		c1.7,0,2.6-1.1,2.6-2.9v-6h1.7V75z"/>
	<path class="st1" d="M1444.9,62.4v2.5h2v1.4h-2v6c0,0.9,0.4,1.3,1.3,1.3c0.2,0,0.6,0,0.7,0V75c-0.2,0-0.7,0.1-1.1,0.1
		c-1.9,0-2.6-0.8-2.6-2.7v-6.1h-1.5v-1.4h1.5v-2.5H1444.9z"/>
	<path class="st1" d="M1448.5,62c0-0.6,0.5-1.1,1.1-1.1c0.6,0,1.1,0.5,1.1,1.1c0,0.6-0.5,1.1-1.1,1.1
		C1449,63.1,1448.5,62.6,1448.5,62z M1448.7,64.9h1.7V75h-1.7V64.9z"/>
	<path class="st1" d="M1452.2,70c0-3.2,1.9-5.3,4.7-5.3c2.8,0,4.7,2,4.7,5.3c0,3.2-1.9,5.3-4.7,5.3
		C1454.1,75.2,1452.2,73.2,1452.2,70z M1459.9,70c0-2.4-1.2-3.8-3-3.8s-3,1.4-3,3.8c0,2.4,1.2,3.8,3,3.8S1459.9,72.3,1459.9,70z"/>
	<path class="st1" d="M1463.4,64.9h1.6v1.6h0c0.6-1.1,1.7-1.8,3.2-1.8c2.2,0,3.5,1.4,3.5,3.7V75h-1.7v-6.3c0-1.6-0.8-2.5-2.3-2.5
		c-1.6,0-2.6,1.1-2.6,2.9v6h-1.7V64.9z"/>
	<path class="st1" d="M1477.4,64.7c2.2,0,3.7,1.3,3.8,3.1h-1.6c-0.1-1.1-0.9-1.7-2.2-1.7c-1.2,0-2.1,0.6-2.1,1.5
		c0,0.7,0.5,1.2,1.7,1.5l1.6,0.4c2.1,0.5,2.8,1.3,2.8,2.8c0,1.8-1.7,3-3.9,3c-2.4,0-3.9-1.2-4.1-3.1h1.7c0.2,1.2,1,1.7,2.4,1.7
		s2.2-0.6,2.2-1.5c0-0.7-0.4-1.2-1.6-1.4l-1.6-0.4c-1.9-0.5-2.8-1.3-2.8-2.8C1473.7,65.9,1475.2,64.7,1477.4,64.7z"/>
	<path class="st1" d="M1532.2,71h-5.6l-1.4,4h-1.8l5.2-14.1h1.7l5.2,14.1h-1.8L1532.2,71z M1527.1,69.5h4.6l-2.3-6.4h-0.1
		L1527.1,69.5z"/>
	<path class="st1" d="M1542.1,60.9c2.6,0,4.5,1.9,4.5,4.5c0,2.7-1.9,4.5-4.5,4.5h-3.3v5h-1.8V60.9H1542.1z M1538.9,68.4h2.8
		c2,0,3.2-1.1,3.2-3c0-1.9-1.1-3-3.2-3h-2.8V68.4z"/>
	<path class="st1" d="M1548.6,75V60.9h1.8V75H1548.6z"/>
	<path class="st1" d="M1556.7,68c0-4.4,2.5-7.3,6.3-7.3c3.1,0,5.4,1.9,5.8,4.7h-1.8c-0.4-1.8-2.1-3.1-4.1-3.1
		c-2.8,0-4.5,2.2-4.5,5.7c0,3.5,1.8,5.7,4.6,5.7c2.1,0,3.6-1,4.1-2.7h1.8c-0.6,2.8-2.7,4.3-5.8,4.3
		C1559.2,75.3,1556.7,72.4,1556.7,68z"/>
	<path class="st1" d="M1570.3,72.2c0-1.7,1.3-2.8,3.7-3l2.9-0.2v-0.8c0-1.2-0.8-2-2.2-2c-1.3,0-2.1,0.6-2.3,1.6h-1.6
		c0.1-1.8,1.6-3.1,4-3.1c2.4,0,3.9,1.3,3.9,3.3v7h-1.6v-1.7h0c-0.6,1.2-1.9,1.9-3.3,1.9C1571.6,75.2,1570.3,74,1570.3,72.2z
		 M1576.9,71.2v-0.8l-2.7,0.2c-1.4,0.1-2.1,0.7-2.1,1.7c0,1,0.8,1.6,2,1.6C1575.7,73.8,1576.9,72.6,1576.9,71.2z"/>
	<path class="st1" d="M1583,62.4v2.5h2v1.4h-2v6c0,0.9,0.4,1.3,1.3,1.3c0.2,0,0.6,0,0.7,0V75c-0.2,0-0.7,0.1-1.1,0.1
		c-1.9,0-2.6-0.8-2.6-2.7v-6.1h-1.5v-1.4h1.5v-2.5H1583z"/>
	<path class="st1" d="M1586.2,72.2c0-1.7,1.3-2.8,3.7-3l2.9-0.2v-0.8c0-1.2-0.8-2-2.2-2c-1.3,0-2.1,0.6-2.3,1.6h-1.6
		c0.1-1.8,1.6-3.1,4-3.1c2.4,0,3.9,1.3,3.9,3.3v7h-1.6v-1.7h0c-0.6,1.2-1.9,1.9-3.3,1.9C1587.5,75.2,1586.2,74,1586.2,72.2z
		 M1592.8,71.2v-0.8l-2.7,0.2c-1.4,0.1-2.1,0.7-2.1,1.7c0,1,0.8,1.6,2,1.6C1591.5,73.8,1592.8,72.6,1592.8,71.2z"/>
	<path class="st1" d="M1596.7,60.9h1.7V75h-1.7V60.9z"/>
	<path class="st1" d="M1600.2,70c0-3.2,1.9-5.3,4.7-5.3c2.8,0,4.7,2,4.7,5.3c0,3.2-1.9,5.3-4.7,5.3
		C1602.1,75.2,1600.2,73.2,1600.2,70z M1607.9,70c0-2.4-1.2-3.8-3-3.8s-3,1.4-3,3.8c0,2.4,1.2,3.8,3,3.8S1607.9,72.3,1607.9,70z"/>
	<path class="st1" d="M1611.2,75.9h1.7c0.3,0.9,1.3,1.5,2.6,1.5c1.8,0,2.8-1,2.8-2.5v-1.6h0c-0.6,1.1-1.8,1.8-3.3,1.8
		c-2.6,0-4.3-2-4.3-5.2c0-3.2,1.7-5.2,4.3-5.2c1.4,0,2.6,0.7,3.3,1.9h0v-1.7h1.6v10c0,2.4-1.8,4-4.6,4
		C1613.3,78.9,1611.5,77.6,1611.2,75.9z M1618.4,69.9c0-2.2-1.2-3.7-2.9-3.7c-1.7,0-2.9,1.4-2.9,3.7c0,2.3,1.1,3.7,2.9,3.7
		C1617.2,73.6,1618.4,72.2,1618.4,69.9z"/>
	<path class="st1" d="M1630.6,75h-1.6v-1.7h0c-0.6,1.2-1.7,1.8-3.2,1.8c-2.2,0-3.5-1.4-3.5-3.7v-6.6h1.7v6.3c0,1.7,0.8,2.5,2.3,2.5
		c1.7,0,2.6-1.1,2.6-2.9v-6h1.7V75z"/>
	<path class="st1" d="M1641.2,72.1c-0.3,1.8-2,3.1-4.2,3.1c-2.9,0-4.7-2-4.7-5.2c0-3.2,1.8-5.3,4.6-5.3c2.7,0,4.4,2,4.4,5.1v0.6
		h-7.3v0.1c0,1.9,1.1,3.2,3,3.2c1.3,0,2.2-0.7,2.5-1.6H1641.2z M1634.1,69.1h5.5c0-1.7-1.1-2.9-2.7-2.9
		C1635.3,66.2,1634.2,67.4,1634.1,69.1z"/>
	<path class="st1" d="M1692.1,71h-5.6l-1.4,4h-1.8l5.2-14.1h1.7l5.2,14.1h-1.8L1692.1,71z M1687,69.5h4.6l-2.3-6.4h-0.1L1687,69.5z"
		/>
	<path class="st1" d="M1698.5,73.3L1698.5,73.3l0,1.7h-1.6V60.9h1.7v5.6h0c0.6-1.2,1.8-1.9,3.3-1.9c2.6,0,4.3,2.1,4.3,5.3
		c0,3.2-1.7,5.3-4.3,5.3C1700.3,75.2,1699.1,74.5,1698.5,73.3z M1698.5,70c0,2.3,1.2,3.8,2.9,3.8c1.8,0,2.9-1.4,2.9-3.8
		c0-2.3-1.1-3.8-2.9-3.8C1699.7,66.2,1698.5,67.7,1698.5,70z"/>
	<path class="st1" d="M1707.3,70c0-3.2,1.9-5.3,4.7-5.3c2.8,0,4.7,2,4.7,5.3c0,3.2-1.9,5.3-4.7,5.3
		C1709.2,75.2,1707.3,73.2,1707.3,70z M1715,70c0-2.4-1.2-3.8-3-3.8s-3,1.4-3,3.8c0,2.4,1.2,3.8,3,3.8S1715,72.3,1715,70z"/>
	<path class="st1" d="M1726.7,75h-1.6v-1.7h0c-0.6,1.2-1.7,1.8-3.2,1.8c-2.2,0-3.5-1.4-3.5-3.7v-6.6h1.7v6.3c0,1.7,0.8,2.5,2.3,2.5
		c1.7,0,2.6-1.1,2.6-2.9v-6h1.7V75z"/>
	<path class="st1" d="M1731.2,62.4v2.5h2v1.4h-2v6c0,0.9,0.4,1.3,1.3,1.3c0.2,0,0.6,0,0.7,0V75c-0.2,0-0.7,0.1-1.1,0.1
		c-1.9,0-2.6-0.8-2.6-2.7v-6.1h-1.5v-1.4h1.5v-2.5H1731.2z"/>
	<path class="st1" d="M1741.1,70c0,2.1,1.4,3.7,3.8,3.7s3.8-1.5,3.8-3.7v-9h1.8v9.2c0,3-2.1,5.2-5.6,5.2s-5.6-2.2-5.6-5.2v-9.2h1.8
		V70z"/>
	<path class="st1" d="M1756.5,64.7c2.2,0,3.7,1.3,3.8,3.1h-1.6c-0.1-1.1-0.9-1.7-2.2-1.7c-1.2,0-2.1,0.6-2.1,1.5
		c0,0.7,0.5,1.2,1.7,1.5l1.6,0.4c2.1,0.5,2.8,1.3,2.8,2.8c0,1.8-1.7,3-3.9,3c-2.4,0-3.9-1.2-4.1-3.1h1.7c0.2,1.2,1,1.7,2.4,1.7
		s2.2-0.6,2.2-1.5c0-0.7-0.4-1.2-1.6-1.4l-1.6-0.4c-1.9-0.5-2.8-1.3-2.8-2.8C1752.8,65.9,1754.4,64.7,1756.5,64.7z"/>
	<path class="st1" d="M1803,68c0-4.4,2.5-7.3,6.3-7.3c3.1,0,5.4,1.9,5.8,4.7h-1.8c-0.4-1.8-2.1-3.1-4.1-3.1c-2.8,0-4.5,2.2-4.5,5.7
		c0,3.5,1.8,5.7,4.6,5.7c2.1,0,3.6-1,4.1-2.7h1.8c-0.6,2.8-2.7,4.3-5.8,4.3C1805.5,75.3,1803,72.4,1803,68z"/>
	<path class="st1" d="M1816.5,70c0-3.2,1.9-5.3,4.7-5.3c2.8,0,4.7,2,4.7,5.3c0,3.2-1.9,5.3-4.7,5.3
		C1818.4,75.2,1816.5,73.2,1816.5,70z M1824.2,70c0-2.4-1.2-3.8-3-3.8s-3,1.4-3,3.8c0,2.4,1.2,3.8,3,3.8S1824.2,72.3,1824.2,70z"/>
	<path class="st1" d="M1827.7,64.9h1.6v1.6h0c0.6-1.1,1.7-1.8,3.2-1.8c2.2,0,3.5,1.4,3.5,3.7V75h-1.7v-6.3c0-1.6-0.8-2.5-2.3-2.5
		c-1.6,0-2.6,1.1-2.6,2.9v6h-1.7V64.9z"/>
	<path class="st1" d="M1840.4,62.4v2.5h2v1.4h-2v6c0,0.9,0.4,1.3,1.3,1.3c0.2,0,0.6,0,0.7,0V75c-0.2,0-0.7,0.1-1.1,0.1
		c-1.9,0-2.6-0.8-2.6-2.7v-6.1h-1.5v-1.4h1.5v-2.5H1840.4z"/>
	<path class="st1" d="M1843.6,72.2c0-1.7,1.3-2.8,3.7-3l2.9-0.2v-0.8c0-1.2-0.8-2-2.2-2c-1.3,0-2.1,0.6-2.3,1.6h-1.6
		c0.1-1.8,1.6-3.1,4-3.1c2.4,0,3.9,1.3,3.9,3.3v7h-1.6v-1.7h0c-0.6,1.2-1.9,1.9-3.3,1.9C1845,75.2,1843.6,74,1843.6,72.2z
		 M1850.2,71.2v-0.8l-2.7,0.2c-1.4,0.1-2.1,0.7-2.1,1.7c0,1,0.8,1.6,2,1.6C1849,73.8,1850.2,72.6,1850.2,71.2z"/>
	<path class="st1" d="M1860.8,68.2c-0.2-1.1-1.1-2-2.6-2c-1.8,0-2.9,1.5-2.9,3.8c0,2.4,1.2,3.8,3,3.8c1.4,0,2.3-0.7,2.6-2h1.7
		c-0.3,2-2,3.4-4.3,3.4c-2.8,0-4.7-2-4.7-5.3c0-3.2,1.9-5.3,4.7-5.3c2.5,0,4.1,1.7,4.3,3.5H1860.8z"/>
	<path class="st1" d="M1866.3,62.4v2.5h2v1.4h-2v6c0,0.9,0.4,1.3,1.3,1.3c0.2,0,0.6,0,0.7,0V75c-0.2,0-0.7,0.1-1.1,0.1
		c-1.9,0-2.6-0.8-2.6-2.7v-6.1h-1.5v-1.4h1.5v-2.5H1866.3z"/>
</g>
</svg>
