<?xml version="1.0" encoding="utf-8"?>
<!-- Generator: Adobe Illustrator 22.1.0, SVG Export Plug-In . SVG Version: 6.00 Build 0)  -->
<svg version="1.1" id="Layer_1" xmlns="http://www.w3.org/2000/svg" xmlns:xlink="http://www.w3.org/1999/xlink" x="0px" y="0px"
	 viewBox="0 0 1919 138" style="enable-background:new 0 0 1919 138;" xml:space="preserve">
<style type="text/css">
	.st0{fill:none;}
	.st1{fill:#FFFFFF;}
	.st2{font-family:'SFProDisplay-Regular';}
	.st3{font-size:20px;}
	.st4{fill:#FD4343;}
</style>
<title>C-001_TopNavigation</title>
<desc>Created with Sketch.</desc>
<g id="UX">
	<g id="BW_T-01_Homepage" transform="translate(-50.000000, -43.000000)">
		<g id="C-001_TopNavigation">
			<g id="Top_Nav">
				<rect id="Rectangle" x="50" y="43" class="st0" width="1919" height="138"/>
				<text transform="matrix(1 0 0 1 1310.3942 119)" class="st1 st2 st3">Why Us Solutions API Catalogue About Us Contact</text>
				<g id="BW-Logo-S-_x28_Dark_x29_" transform="translate(50.000000, 43.000000)">
					<g id="Group">
						<path id="Combined-Shape" class="st1" d="M114.8,87.2H101V55.9h13.5c5.8,0,9.5,3,9.5,7.8c0,3.4-2.5,6.3-5.8,6.8v0.2
							c4.2,0.3,7.3,3.4,7.3,7.6C125.5,83.7,121.4,87.2,114.8,87.2z M107.6,60.7v8.2h4.6c3.4,0,5.4-1.6,5.4-4.2c0-2.5-1.7-4-4.8-4
							H107.6z M107.6,82.4h5.6c3.7,0,5.7-1.6,5.7-4.6c0-2.9-2.1-4.5-5.9-4.5h-5.4V82.4z"/>
						<path id="Path" class="st1" d="M129,87.2V63.8h6.3v4.3h0.1c0.8-3,2.7-4.6,5.4-4.6c0.7,0,1.4,0.1,1.8,0.2v5.6
							c-0.5-0.2-1.4-0.4-2.3-0.4c-3.1,0-5,1.9-5,5.2v13H129z"/>
						<g id="Group-3" transform="translate(95.968535, 12.303571)">
							<polygon id="Path_1_" class="st1" points="50,74.9 50,51.5 56.3,51.5 56.3,74.9 							"/>
							<path id="Path_2_" class="st1" d="M53.1,49.3c-1.8,0-3.1-1.4-3.1-3.2c0-1.7,1.4-3.2,3.1-3.2c1.8,0,3.1,1.4,3.1,3.2
								C56.3,47.9,54.9,49.3,53.1,49.3z"/>
						</g>
						<path id="Combined-Shape_1_" class="st1" d="M165,87.2c-5.7,0-9.3-4.5-9.3-11.9c0-7.3,3.6-11.8,9.3-11.8c3.3,0,5.9,1.8,7,4.3
							h0.1V55.9h6.2v31.2h-6.1v-4.3h-0.1C171,85.4,168.4,87.2,165,87.2z M167,68.6c-3.1,0-5,2.6-5,6.8c0,4.2,1.9,6.8,5,6.8
							c3.1,0,5-2.6,5-6.8C172.1,71.2,170.1,68.6,167,68.6z"/>
						<path id="Combined-Shape_2_" class="st1" d="M193.3,96c-6.1,0-10.2-3-10.7-7.1h6.2c0.5,1.6,2.3,2.7,4.7,2.7
							c3.3,0,5.1-1.8,5.1-4.5V83h-0.1c-1.1,2.5-3.8,4.2-7.1,4.2c-5.7,0-9.4-4.4-9.4-11.7c0-7.4,3.6-11.9,9.5-11.9
							c3.3,0,5.9,1.8,7.1,4.4h0.1v-4.1h6.2v23.1C204.8,92.5,200.2,96,193.3,96z M193.3,82.1c3.2,0,5.2-2.5,5.2-6.7
							c0-4.2-2-6.9-5.2-6.9c-3.2,0-5.1,2.6-5.1,6.9C188.1,79.7,190.1,82.1,193.3,82.1z"/>
						<polygon id="Path_3_" class="st1" points="266.2,63.5 259.9,87.2 253,87.2 248.7,70.4 248.6,70.4 244.3,87.2 237.5,87.2 
							231.2,63.5 237.7,63.5 241.3,81.1 241.5,81.1 245.7,63.5 251.8,63.5 256.1,81.1 256.2,81.1 259.8,63.5 						"/>
						<path id="Combined-Shape_3_" class="st1" d="M300.4,87.2c-4.3,0-7.5-2.9-7.5-7c0-4.1,3.1-6.5,8.8-6.9l5.7-0.3v-1.5
							c0-2.1-1.5-3.4-3.8-3.4c-2.3,0-3.7,1.1-4,2.8h-5.6c0.2-4.4,3.9-7.4,9.9-7.4c5.8,0,9.5,3,9.5,7.6v16.1h-6v-3.9h-0.1
							C306,85.7,303.3,87.2,300.4,87.2z M302.2,82.5c2.7,0,5-1.8,5-4.3v-1.7l-4.8,0.3c-2.3,0.2-3.7,1.2-3.7,2.9
							C298.7,81.5,300.1,82.5,302.2,82.5z"/>
						<polygon id="Path_4_" class="st1" points="338.8,63.5 330.7,87.2 323.4,87.2 315.3,63.5 322.2,63.5 327.1,81.5 327.2,81.5 
							332.1,63.5 						"/>
						<path id="Combined-Shape_4_" class="st1" d="M356.4,79.7h5.6c-0.7,4.4-4.7,7.4-10.2,7.4c-6.9,0-11-4.5-11-11.7
							c0-7.2,4.2-11.9,10.8-11.9c6.5,0,10.6,4.5,10.6,11.4v1.9h-15.4v0.4c0,3.2,2,5.5,5.1,5.5C354.1,82.6,355.8,81.5,356.4,79.7z
							 M351.5,68.2c-2.7,0-4.6,2-4.8,4.7h9.4C356,70.2,354.2,68.2,351.5,68.2z"/>
						<path id="Combined-Shape-Copy" class="st1" d="M283.7,79.7h5.6c-0.7,4.4-4.7,7.4-10.2,7.4c-6.9,0-11-4.5-11-11.7
							c0-7.2,4.2-11.9,10.8-11.9c6.5,0,10.6,4.5,10.6,11.4v1.9H274v0.4c0,3.2,2,5.5,5.1,5.5C281.4,82.6,283.1,81.5,283.7,79.7z
							 M278.8,68.2c-2.7,0-4.6,2-4.8,4.7h9.4C283.3,70.2,281.5,68.2,278.8,68.2z"/>
						<path id="Combined-Shape-Copy-2" class="st1" d="M223.9,79.7h5.6c-0.7,4.4-4.7,7.4-10.2,7.4c-6.9,0-11-4.5-11-11.7
							c0-7.2,4.2-11.9,10.8-11.9c6.5,0,10.6,4.5,10.6,11.4v1.9h-15.4v0.4c0,3.2,2,5.5,5.1,5.5C221.6,82.6,223.3,81.5,223.9,79.7z
							 M219,68.2c-2.7,0-4.6,2-4.8,4.7h9.4C223.6,70.2,221.7,68.2,219,68.2z"/>
						<path id="TM" class="st1" d="M362.4,63.5h2.7v0.6h-1v2.6h-0.8v-2.6h-1V63.5z M366.3,63.5h1l0.4,1.3c0,0.1,0.1,0.2,0.1,0.3
							s0.1,0.3,0.1,0.4c0,0.1,0.1,0.3,0.1,0.4h0c0-0.1,0-0.3,0.1-0.4c0-0.1,0-0.2,0.1-0.4s0.1-0.2,0.1-0.3l0.4-1.3h1v3.2H369v-1.4
							c0-0.1,0-0.2,0-0.3c0-0.1,0-0.3,0-0.4c0-0.1,0-0.3,0-0.4h0c0,0.1-0.1,0.3-0.1,0.4c0,0.1-0.1,0.2-0.1,0.3
							c0,0.1-0.1,0.2-0.1,0.3l-0.5,1.5h-0.6l-0.5-1.5c0-0.1-0.1-0.2-0.1-0.3c0-0.1-0.1-0.2-0.1-0.3c0-0.1-0.1-0.3-0.1-0.4h0
							c0,0.1,0,0.3,0,0.4c0,0.1,0,0.2,0,0.4c0,0.1,0,0.2,0,0.3v1.4h-0.7V63.5z"/>
						<g id="Monogram-Copy">
							<polygon id="Path-9" class="st4" points="78.5,43 94.1,43 65.6,87.2 50,87.2 							"/>
							<rect id="Rectangle_1_" x="79.5" y="72.4" class="st4" width="14.5" height="14.7"/>
						</g>
					</g>
				</g>
			</g>
		</g>
	</g>
</g>
</svg>
